{
  "accessors": [
    {
      "bufferView": 2,
      "componentType": 5126,
      "count": 34043,
      "max": [
        0.014530000276863575,
        0.00066999997943639755,
        0.030130000784993172
      ],
      "min": [
        -0.041379999369382858,
        -0.11482000350952148,
        -0.025429999455809593
      ],
      "type": "VEC3"
    },
    {
      "bufferView": 2,
      "byteOffset": 408516,
      "componentType": 5126,
      "count": 34043,
      "max": [
        0.99997466802597046,
        0.99999731779098511,
        0.99999934434890747
      ],
      "min": [
        -0.9999963641166687,
        -0.99999040365219116,
        -0.99999302625656128
      ],
      "type": "VEC3"
    },
    {
      "bufferView": 3,
      "componentType": 5126,
      "count": 34043,
      "max": [
        0.99999773502349854,
        1,
        0.99999725818634033,
        1
      ],
      "min": [
        -0.99999994039535522,
        -1,
        -0.99999821186065674,
        -1
      ],
      "type": "VEC4"
    },
    {
      "bufferView": 1,
      "componentType": 5126,
      "count": 34043,
      "max": [
        0.84843999147415161,
        0.99500000476837158
      ],
      "min": [
        0.004999999888241291,
        0.004999999888241291
      ],
      "type": "VEC2"
    },
    {
      "bufferView": 0,
      "componentType": 5125,
      "count": 190266,
      "max": [
        34042
      ],
      "min": [
        0
      ],
      "type": "SCALAR"
    }
  ],
  "asset": {
    "extras": {
      "author": "jarmovac.curak (https://sketchfab.com/jarmovac.curak)",
      "license": "CC-BY-NC-ND-4.0 (http://creativecommons.org/licenses/by-nc-nd/4.0/)",
      "source": "https://sketchfab.com/3d-models/hammerstone-f2-kaludjerske-livade-4eae88d6dc954a08851ccb392aeb322d",
      "title": "Hammerstone, F2- Kaludjerske livade"
    },
    "generator": "Sketchfab-8.6.0",
    "version": "2.0"
  },
  "bufferViews": [
    {
      "buffer": 0,
      "byteLength": 761064,
      "byteOffset": 0,
      "name": "floatBufferViews",
      "target": 34963
    },
    {
      "buffer": 0,
      "byteLength": 272344,
      "byteOffset": 761064,
      "byteStride": 8,
      "name": "floatBufferViews",
      "target": 34962
    },
    {
      "buffer": 0,
      "byteLength": 817032,
      "byteOffset": 1033408,
      "byteStride": 12,
      "name": "floatBufferViews",
      "target": 34962
    },
    {
      "buffer": 0,
      "byteLength": 544688,
      "byteOffset": 1850440,
      "byteStride": 16,
      "name": "floatBufferViews",
      "target": 34962
    }
  ],
  "buffers": [
    {
      "byteLength": 2395128,
      "uri": "scene.bin"
    }
  ],
  "images": [
    {
      "uri": "textures/Material.001_baseColor.png"
    },
    {
      "uri": "textures/Material.001_metallicRoughness.png"
    },
    {
      "uri": "textures/Material.001_normal.png"
    }
  ],
  "materials": [
    {
      "doubleSided": true,
      "name": "Material.001",
      "normalTexture": {
        "index": 2,
        "scale": 1,
        "texCoord": 0
      },
      "occlusionTexture": {
        "index": 1,
        "strength": 1,
        "texCoord": 0
      },
      "pbrMetallicRoughness": {
        "baseColorFactor": [
          1,
          1,
          1,
          1
        ],
        "baseColorTexture": {
          "index": 0,
          "texCoord": 0
        },
        "metallicFactor": 0.26391006097560976,
        "metallicRoughnessTexture": {
          "index": 1,
          "texCoord": 0
        },
        "roughnessFactor": 0.59999999999999998
      }
    }
  ],
  "meshes": [
    {
      "name": "default_0",
      "primitives": [
        {
          "attributes": {
            "NORMAL": 1,
            "POSITION": 0,
            "TANGENT": 2,
            "TEXCOORD_0": 3
          },
          "indices": 4,
          "material": 0,
          "mode": 4
        }
      ]
    }
  ],
  "nodes": [
    {
      "children": [
        1
      ],
      "name": "RootNode (gltf orientation matrix)",
      "rotation": [
        -0.70710678118654746,
        -0,
        -0,
        0.70710678118654757
      ]
    },
    {
      "children": [
        2
      ],
      "name": "RootNode (model correction matrix)"
    },
    {
      "children": [
        3,
        16
      ],
      "name": "Root"
    },
    {
      "children": [
        4,
        7,
        10,
        13
      ],
      "matrix": [
        1,
        0,
        0,
        0,
        0,
        1,
        0,
        0,
        0,
        0,
        1,
        0,
        0.17251000000000002,
        -0.10181,
        -0.025580000000000006,
        1
      ],
      "name": "Empty.010"
    },
    {
      "children": [
        5
      ],
      "matrix": [
        0.90630999999999995,
        -0.42262000000000005,
        0,
        0,
        0.32685000000000008,
        0.70093000000000005,
        -0.6339300000000001,
        0,
        0.26791000000000004,
        0.57454000000000005,
        0.77339000000000002,
        0,
        3.7299800000000003,
        1.8015099999999999,
        3.7197399999999998,
        1
      ],
      "name": "Area.011_empty"
    },
    {
      "children": [
        6
      ],
      "name": "Area.011"
    },
    {
      "name": "Area.011"
    },
    {
      "children": [
        8
      ],
      "matrix": [
        0.5,
        -0.86603000000000008,
        0,
        0,
        0,
        0,
        1,
        0,
        -0.86603000000000008,
        -0.5,
        0,
        0,
        -6.5931299999999995,
        -3.8458899999999998,
        3.1205500000000002,
        1
      ],
      "name": "Area.010_empty"
    },
    {
      "children": [
        9
      ],
      "name": "Area.010"
    },
    {
      "name": "Area.010"
    },
    {
      "children": [
        11
      ],
      "matrix": [
        0.90630999999999995,
        0.42262000000000005,
        -0,
        0,
        -0.32685000000000008,
        0.70093000000000005,
        -0.6339300000000001,
        0,
        -0.26791000000000004,
        0.57454000000000005,
        0.77339000000000002,
        0,
        -2.2079600000000004,
        2.57972,
        3.7197399999999998,
        1
      ],
      "name": "Area.009_empty"
    },
    {
      "children": [
        12
      ],
      "name": "Area.009"
    },
    {
      "name": "Area.009"
    },
    {
      "children": [
        14
      ],
      "matrix": [
        0,
        0,
        -1,
        0,
        -1,
        -0,
        -0,
        0,
        -0,
        1,
        -0,
        0,
        2.6495200000000003,
        2.0849500000000001,
        2.4731399999999999,
        1
      ],
      "name": "Area.008_empty"
    },
    {
      "children": [
        15
      ],
      "name": "Area.008"
    },
    {
      "name": "Area.008"
    },
    {
      "children": [
        17
      ],
      "matrix": [
        -0.9537000000000001,
        0,
        -0.30076000000000003,
        0,
        0.30076000000000003,
        0,
        -0.9537000000000001,
        0,
        -0,
        -1,
        -0,
        0,
        0,
        -0,
        0,
        1
      ],
      "name": "default"
    },
    {
      "mesh": 0,
      "name": "default_0"
    }
  ],
  "samplers": [
    {
      "magFilter": 9729,
      "minFilter": 9987,
      "wrapS": 10497,
      "wrapT": 10497
    }
  ],
  "scene": 0,
  "scenes": [
    {
      "name": "OSG_Scene",
      "nodes": [
        0
      ]
    }
  ],
  "textures": [
    {
      "sampler": 0,
      "source": 0
    },
    {
      "sampler": 0,
      "source": 1
    },
    {
      "sampler": 0,
      "source": 2
    }
  ]
}

